<svg xmlns="http://www.w3.org/2000/svg" xmlns:xlink="http://www.w3.org/1999/xlink" width="500" zoomAndPan="magnify" viewBox="0 0 375 374.999991" height="500" preserveAspectRatio="xMidYMid meet" version="1.0"><defs><clipPath id="a5a44d9b90"><path d="M 99 146.042969 L 276.625 146.042969 L 276.625 216.542969 L 99 216.542969 Z M 99 146.042969 " clip-rule="nonzero"/></clipPath></defs><g clip-path="url(#a5a44d9b90)"><path fill="#222222" d="M 221.679688 216.238281 C 220.679688 216.238281 219.761719 216.238281 218.761719 216.152344 C 200.003906 214.902344 189.167969 200.0625 179.664062 186.976562 C 171.074219 175.136719 162.988281 164.132812 150.734375 164.714844 C 115.554688 166.550781 111.46875 190.976562 111.386719 191.226562 L 111.21875 192.226562 L 99.296875 192.976562 L 99.214844 191.726562 C 99.214844 191.5625 98.878906 186.640625 103.046875 174.636719 C 109.21875 156.878906 133.226562 147.542969 147.566406 146.875 C 164.40625 146.042969 178.746094 154.710938 191.335938 173.46875 C 205.921875 195.144531 219.261719 194.5625 228.097656 194.144531 C 246.941406 193.226562 263.695312 166.300781 263.863281 166.050781 L 264.699219 164.632812 L 276.117188 177.054688 L 275.703125 177.804688 C 275.453125 178.222656 255.195312 216.238281 221.679688 216.238281 Z M 151.816406 162.214844 C 164.738281 162.214844 172.992188 173.46875 181.664062 185.476562 C 191.335938 198.730469 201.339844 212.484375 218.929688 213.652344 C 228.597656 214.320312 243.355469 211.734375 258.863281 196.144531 C 264.363281 190.558594 269.117188 184.222656 273.035156 177.472656 L 265.03125 168.71875 C 261.195312 174.46875 245.941406 195.8125 228.183594 196.644531 C 219.34375 197.0625 204.671875 197.730469 189.25 174.886719 C 177.246094 156.878906 163.574219 148.542969 147.734375 149.375 C 134.0625 150.042969 111.136719 158.796875 105.382812 175.472656 C 102.632812 183.558594 101.882812 188.226562 101.714844 190.308594 L 109.132812 189.808594 C 110.382812 184.976562 117.554688 163.882812 150.566406 162.214844 C 150.984375 162.214844 151.402344 162.214844 151.816406 162.214844 Z M 151.816406 162.214844 " fill-opacity="1" fill-rule="nonzero"/></g></svg>