<svg xmlns="http://www.w3.org/2000/svg" xmlns:xlink="http://www.w3.org/1999/xlink" width="1080" zoomAndPan="magnify" viewBox="0 0 810 1012.49997" height="1350" preserveAspectRatio="xMidYMid meet" version="1.0"><defs><clipPath id="5abb424a36"><path d="M 148 195.613281 L 662 195.613281 L 662 816.308594 L 148 816.308594 Z M 148 195.613281 " clip-rule="nonzero"/></clipPath></defs><g clip-path="url(#5abb424a36)"><path fill="#ffffff" d="M 414.769531 195.613281 L 395.230469 195.613281 C 259.203125 195.613281 148.351562 306.464844 148.351562 442.492188 L 148.351562 569.5 C 148.351562 705.527344 259.203125 816.378906 395.230469 816.378906 L 414.769531 816.378906 C 550.796875 816.378906 661.648438 705.527344 661.648438 569.5 L 661.648438 442.492188 C 661.648438 306.464844 550.796875 195.613281 414.769531 195.613281 Z M 656.011719 569.5 C 656.011719 702.519531 547.789062 810.742188 414.769531 810.742188 L 395.230469 810.742188 C 262.210938 810.742188 153.988281 702.519531 153.988281 569.5 L 153.988281 442.492188 C 153.988281 309.46875 262.210938 201.25 395.230469 201.25 L 414.769531 201.25 C 547.789062 201.25 656.011719 309.472656 656.011719 442.492188 Z M 656.011719 569.5 " fill-opacity="1" fill-rule="nonzero"/></g><path fill="#ffffff" d="M 405 228.304688 C 279.117188 228.304688 176.535156 330.890625 176.535156 456.769531 L 176.535156 555.222656 C 176.535156 681.101562 279.117188 783.6875 405 783.6875 C 530.882812 783.6875 633.464844 681.101562 633.464844 555.222656 L 633.464844 456.769531 C 633.464844 330.890625 530.882812 228.304688 405 228.304688 Z M 627.828125 505.996094 L 627.828125 555.222656 C 627.828125 678.097656 527.875 778.050781 405 778.050781 C 282.125 778.050781 182.171875 678.097656 182.171875 555.222656 L 182.171875 456.769531 C 182.171875 333.894531 282.125 233.941406 405 233.941406 C 527.875 233.941406 627.828125 333.894531 627.828125 456.769531 Z M 627.828125 505.996094 " fill-opacity="1" fill-rule="nonzero"/><path fill="#ffffff" d="M 405 263.628906 C 294.523438 263.628906 204.71875 353.433594 204.71875 463.910156 L 204.71875 548.832031 C 204.71875 659.308594 294.523438 749.117188 405 749.117188 C 515.476562 749.117188 605.28125 659.308594 605.28125 548.832031 L 605.28125 463.535156 C 605.28125 353.433594 515.476562 263.628906 405 263.628906 Z M 599.644531 505.996094 L 599.644531 548.457031 C 599.644531 655.550781 512.46875 743.101562 405 743.101562 C 297.90625 743.101562 210.351562 655.925781 210.351562 548.457031 L 210.351562 463.535156 C 210.351562 356.441406 297.53125 268.886719 405 268.886719 C 512.09375 268.886719 599.644531 356.066406 599.644531 463.535156 Z M 599.644531 505.996094 " fill-opacity="1" fill-rule="nonzero"/><path fill="#ffffff" d="M 405 298.949219 C 310.308594 298.949219 232.898438 375.980469 232.898438 471.050781 L 232.898438 540.941406 C 232.898438 635.632812 309.929688 713.042969 405 713.042969 C 499.691406 713.042969 577.101562 636.011719 577.101562 540.941406 L 577.101562 471.050781 C 577.101562 376.355469 499.691406 298.949219 405 298.949219 Z M 571.464844 505.996094 L 571.464844 540.941406 C 571.464844 632.628906 496.6875 707.40625 405 707.40625 C 313.3125 707.40625 238.535156 632.628906 238.535156 540.941406 L 238.535156 471.050781 C 238.535156 379.363281 312.9375 304.585938 405 304.585938 C 496.6875 304.585938 571.464844 379.363281 571.464844 471.050781 Z M 571.464844 505.996094 " fill-opacity="1" fill-rule="nonzero"/><path fill="#ffffff" d="M 405 333.144531 C 325.714844 333.144531 261.082031 397.777344 261.082031 477.0625 L 261.082031 535.679688 C 261.082031 614.96875 325.714844 679.597656 405 679.597656 C 484.285156 679.597656 548.917969 614.96875 548.917969 535.679688 L 548.917969 477.0625 C 548.917969 397.777344 484.285156 333.144531 405 333.144531 Z M 543.28125 505.996094 L 543.28125 535.304688 C 543.28125 611.585938 481.28125 673.585938 405 673.585938 C 328.71875 673.585938 266.71875 611.585938 266.71875 535.304688 L 266.71875 476.6875 C 266.71875 400.40625 328.71875 338.40625 405 338.40625 C 481.28125 338.40625 543.28125 400.40625 543.28125 476.6875 Z M 543.28125 505.996094 " fill-opacity="1" fill-rule="nonzero"/><path fill="#ffffff" d="M 405 401.910156 C 356.902344 401.910156 317.445312 440.988281 317.445312 489.460938 L 317.445312 523.28125 C 317.445312 571.378906 356.527344 610.835938 405 610.835938 C 453.097656 610.835938 492.554688 571.753906 492.554688 523.28125 L 492.554688 489.460938 C 492.554688 440.988281 453.097656 401.910156 405 401.910156 Z M 486.917969 505.996094 L 486.917969 522.90625 C 486.917969 567.996094 450.089844 604.820312 405 604.820312 C 359.90625 604.820312 323.082031 567.996094 323.082031 522.90625 L 323.082031 489.085938 C 323.082031 443.996094 359.90625 407.167969 405 407.167969 C 450.089844 407.167969 486.917969 443.996094 486.917969 489.085938 Z M 486.917969 505.996094 " fill-opacity="1" fill-rule="nonzero"/><path fill="#ffffff" d="M 405 367.714844 C 341.121094 367.714844 289.265625 419.570312 289.265625 483.449219 L 289.265625 529.292969 C 289.265625 593.171875 341.121094 645.027344 405 645.027344 C 468.878906 645.027344 520.734375 593.171875 520.734375 529.292969 L 520.734375 483.449219 C 520.734375 419.570312 468.878906 367.714844 405 367.714844 Z M 515.097656 505.996094 L 515.097656 528.917969 C 515.097656 589.414062 465.875 639.015625 405 639.015625 C 344.125 639.015625 294.902344 589.792969 294.902344 528.917969 L 294.902344 483.074219 C 294.902344 422.574219 344.125 372.976562 405 372.976562 C 465.875 372.976562 515.097656 422.574219 515.097656 483.074219 Z M 515.097656 505.996094 " fill-opacity="1" fill-rule="nonzero"/><path fill="#ffffff" d="M 405 434.226562 C 372.308594 434.226562 345.628906 460.902344 345.628906 493.59375 L 345.628906 518.394531 C 345.628906 551.085938 372.308594 577.765625 405 577.765625 C 437.691406 577.765625 464.371094 551.085938 464.371094 518.394531 L 464.371094 493.59375 C 464.371094 460.902344 437.691406 434.226562 405 434.226562 Z M 458.734375 505.996094 L 458.734375 518.394531 C 458.734375 547.707031 434.683594 572.128906 405 572.128906 C 375.3125 572.128906 351.265625 548.082031 351.265625 518.394531 L 351.265625 493.59375 C 351.265625 464.285156 375.3125 439.859375 405 439.859375 C 434.683594 439.859375 458.734375 463.910156 458.734375 493.59375 Z M 458.734375 505.996094 " fill-opacity="1" fill-rule="nonzero"/><path fill="#ffffff" d="M 405 471.425781 C 388.089844 471.425781 373.8125 485.328125 373.8125 502.613281 L 373.8125 510.128906 C 373.8125 527.039062 387.714844 541.316406 405 541.316406 C 421.910156 541.316406 436.1875 527.414062 436.1875 510.128906 L 436.1875 502.613281 C 436.1875 485.328125 421.910156 471.425781 405 471.425781 Z M 430.550781 505.996094 L 430.550781 509.753906 C 430.550781 523.65625 419.277344 535.304688 405 535.304688 C 391.097656 535.304688 379.449219 524.03125 379.449219 509.753906 L 379.449219 502.238281 C 379.449219 488.335938 390.71875 476.6875 405 476.6875 C 418.902344 476.6875 430.550781 487.960938 430.550781 502.238281 Z M 430.550781 505.996094 " fill-opacity="1" fill-rule="nonzero"/></svg>