<svg xmlns="http://www.w3.org/2000/svg" xmlns:xlink="http://www.w3.org/1999/xlink" width="1080" zoomAndPan="magnify" viewBox="0 0 810 1012.49997" height="1350" preserveAspectRatio="xMidYMid meet" version="1.0"><defs><filter x="0%" y="0%" width="100%" height="100%" id="970dd802b9"><feColorMatrix values="0 0 0 0 1 0 0 0 0 1 0 0 0 0 1 0 0 0 1 0" color-interpolation-filters="sRGB"/></filter><mask id="7d87e3e21c"><g filter="url(#970dd802b9)"><rect x="-81" width="972" fill="#000000" y="-101.249997" height="1214.999964" fill-opacity="0.91"/></g></mask><clipPath id="74f46137d5"><path d="M 1 79 L 531.832031 79 L 531.832031 527 L 1 527 Z M 1 79 " clip-rule="nonzero"/></clipPath><clipPath id="82989ce4d2"><rect x="0" width="532" y="0" height="607"/></clipPath></defs><g mask="url(#7d87e3e21c)"><g transform="matrix(1, 0, 0, 1, 139, 203)"><g clip-path="url(#82989ce4d2)"><g clip-path="url(#74f46137d5)"><path fill="#ffffff" d="M 1.050781 193.296875 L 1.050781 250.085938 C 177.671875 361.40625 354.296875 138.5625 530.917969 250.085938 L 530.917969 193.296875 C 354.296875 81.769531 177.671875 304.613281 1.050781 193.296875 Z M 1.050781 111.8125 L 1.050781 168.601562 C 177.671875 279.921875 354.296875 57.078125 530.917969 168.601562 L 530.917969 111.8125 C 354.296875 0.492188 177.671875 223.335938 1.050781 111.8125 Z M 1.050781 274.574219 L 1.050781 331.363281 C 177.671875 442.683594 354.296875 219.839844 530.917969 331.363281 L 530.917969 274.574219 C 354.296875 163.046875 177.671875 385.890625 1.050781 274.574219 Z M 1.257812 437.332031 L 1.257812 494.125 C 177.878906 605.445312 354.5 382.601562 531.125 494.125 L 531.125 437.332031 C 354.296875 325.808594 177.671875 548.652344 1.257812 437.332031 Z M 1.050781 355.851562 L 1.050781 412.640625 C 177.671875 523.960938 354.296875 301.117188 530.917969 412.640625 L 530.917969 355.851562 C 354.296875 244.53125 177.671875 467.375 1.050781 355.851562 Z M 1.050781 355.851562 " fill-opacity="1" fill-rule="nonzero"/></g></g></g></g></svg>