<svg xmlns="http://www.w3.org/2000/svg" xmlns:xlink="http://www.w3.org/1999/xlink" width="1080" zoomAndPan="magnify" viewBox="0 0 810 1012.49997" height="1350" preserveAspectRatio="xMidYMid meet" version="1.0"><defs><filter x="0%" y="0%" width="100%" height="100%" id="fdabcfae1f"><feColorMatrix values="0 0 0 0 1 0 0 0 0 1 0 0 0 0 1 0 0 0 1 0" color-interpolation-filters="sRGB"/></filter><mask id="905f706041"><g filter="url(#fdabcfae1f)"><rect x="-81" width="972" fill="#000000" y="-101.249997" height="1214.999964" fill-opacity="0.89"/></g></mask><clipPath id="f6802c26a8"><path d="M 0.878906 0.925781 L 560.851562 0.925781 L 560.851562 182 L 0.878906 182 Z M 0.878906 0.925781 " clip-rule="nonzero"/></clipPath><clipPath id="73538f1ad8"><path d="M 0.878906 31 L 560.851562 31 L 560.851562 449.890625 L 0.878906 449.890625 Z M 0.878906 31 " clip-rule="nonzero"/></clipPath><clipPath id="337f52c896"><rect x="0" width="562" y="0" height="450"/></clipPath></defs><g mask="url(#905f706041)"><g transform="matrix(1, 0, 0, 1, 124, 258)"><g clip-path="url(#337f52c896)"><g clip-path="url(#f6802c26a8)"><path fill="#ffffff" d="M 177.816406 137.976562 C 223.199219 166.863281 270.085938 181.347656 317.773438 181.347656 C 336.011719 181.347656 354.371094 179.21875 372.789062 174.992188 C 408.828125 166.683594 445.308594 150.1875 481.257812 125.886719 C 508.339844 107.617188 535.152344 84.910156 561.082031 58.332031 L 561.082031 41.335938 C 559.75 42.753906 558.417969 44.171875 557.03125 45.589844 C 515.136719 89.40625 448.707031 145.429688 370.128906 163.519531 C 306.683594 178.125 244.128906 166.210938 184.203125 128.101562 L 0.878906 0.980469 L 0.878906 15.289062 L 177.609375 137.859375 C 177.699219 137.890625 177.757812 137.949219 177.816406 137.976562 Z M 177.816406 137.976562 " fill-opacity="1" fill-rule="nonzero"/></g><g clip-path="url(#73538f1ad8)"><path fill="#ffffff" d="M 561.109375 77.785156 C 537.605469 100.816406 513.394531 120.773438 488.972656 137.269531 C 451.605469 162.484375 413.585938 179.691406 375.894531 188.355469 C 356.382812 192.847656 336.957031 195.09375 317.652344 195.09375 C 267.425781 195.09375 218.113281 179.871094 170.457031 149.535156 C 170.25 149.390625 170.011719 149.242188 169.804688 149.09375 L 0.878906 31.992188 L 0.878906 449.757812 L 561.082031 449.757812 L 561.082031 77.785156 Z M 561.109375 77.785156 " fill-opacity="1" fill-rule="nonzero"/></g></g></g></g></svg>