<svg xmlns="http://www.w3.org/2000/svg" xmlns:xlink="http://www.w3.org/1999/xlink" width="1080" zoomAndPan="magnify" viewBox="0 0 810 1012.49997" height="1350" preserveAspectRatio="xMidYMid meet" version="1.0"><path fill="#ff5757" d="M 249.300781 725.117188 C 225.300781 701.117188 225.300781 662.179688 249.300781 638.179688 C 273.300781 614.175781 312.238281 614.175781 336.242188 638.179688 C 360.242188 662.179688 360.242188 701.117188 336.242188 725.117188 C 312.21875 749.140625 273.300781 749.140625 249.300781 725.117188 Z M 249.300781 725.117188 " fill-opacity="1" fill-rule="nonzero"/><path fill="#ff5757" d="M 452.992188 317.667969 C 428.992188 293.667969 428.992188 254.726562 452.992188 230.726562 C 476.992188 206.726562 515.933594 206.726562 539.933594 230.726562 C 563.933594 254.726562 563.933594 293.667969 539.933594 317.667969 C 515.910156 341.691406 476.992188 341.691406 452.992188 317.667969 Z M 452.992188 317.667969 " fill-opacity="1" fill-rule="nonzero"/><path fill="#ff5757" d="M 449.609375 418.355469 L 447.746094 416.488281 C 447.855469 416.597656 447.964844 416.707031 448.070312 416.816406 Z M 449.609375 418.355469 " fill-opacity="1" fill-rule="nonzero"/><path fill="#ff5757" d="M 336.21875 521.425781 C 312.21875 545.425781 273.300781 545.425781 249.277344 521.425781 C 237.289062 509.4375 231.261719 493.695312 231.261719 477.957031 C 231.261719 462.214844 237.265625 446.496094 249.277344 434.484375 C 261.269531 422.472656 277.007812 416.46875 292.75 416.46875 C 308.488281 416.46875 324.207031 422.472656 336.21875 434.484375 L 341.011719 439.277344 C 355.210938 453.476562 374.484375 461.457031 394.585938 461.457031 L 394.605469 461.457031 C 414.703125 461.457031 433.980469 453.476562 448.179688 439.277344 L 452.972656 434.484375 C 476.972656 410.484375 515.890625 410.484375 539.910156 434.484375 C 551.902344 446.496094 557.929688 462.214844 557.929688 477.957031 C 557.929688 493.675781 551.921875 509.414062 539.910156 521.425781 C 527.921875 533.414062 512.183594 539.441406 496.441406 539.441406 C 480.703125 539.441406 464.984375 533.4375 452.972656 521.425781 L 448.179688 516.632812 C 433.980469 502.433594 414.703125 494.433594 394.605469 494.433594 C 374.507812 494.433594 355.234375 502.410156 341.03125 516.632812 Z M 336.21875 521.425781 " fill-opacity="1" fill-rule="nonzero"/><path fill="#ff5757" d="M 336.21875 434.441406 C 360.21875 458.441406 360.21875 497.359375 336.21875 521.382812 C 324.230469 533.371094 308.488281 539.398438 292.75 539.398438 C 277.007812 539.398438 261.289062 533.394531 249.277344 521.382812 C 237.265625 509.394531 231.261719 493.652344 231.261719 477.910156 C 231.261719 462.171875 237.265625 446.453125 249.277344 434.441406 L 254.070312 429.648438 C 268.269531 415.449219 276.25 396.175781 276.25 376.078125 L 276.25 376.054688 C 276.25 355.957031 268.269531 336.683594 254.070312 322.480469 L 249.277344 317.691406 C 225.277344 293.6875 225.277344 254.769531 249.277344 230.75 C 261.289062 218.757812 277.007812 212.730469 292.75 212.730469 C 308.46875 212.730469 324.207031 218.738281 336.21875 230.75 C 348.207031 242.738281 354.234375 258.480469 354.234375 274.21875 C 354.234375 289.960938 348.230469 305.679688 336.21875 317.691406 L 331.425781 322.480469 C 317.226562 336.683594 309.226562 355.957031 309.226562 376.054688 C 309.226562 396.152344 317.203125 415.425781 331.425781 429.628906 Z M 336.21875 434.441406 " fill-opacity="1" fill-rule="nonzero"/><path fill="#ff5757" d="M 539.910156 638.199219 C 563.914062 662.199219 563.914062 701.117188 539.910156 725.140625 C 527.921875 737.128906 512.183594 743.15625 496.441406 743.15625 C 480.703125 743.15625 464.984375 737.152344 452.972656 725.140625 C 440.960938 713.152344 434.953125 697.410156 434.953125 681.667969 C 434.953125 665.929688 440.960938 650.210938 452.972656 638.199219 L 457.761719 633.40625 C 471.964844 619.207031 479.941406 599.933594 479.941406 579.835938 L 479.941406 579.8125 C 479.941406 559.714844 471.964844 540.441406 457.761719 526.238281 L 452.972656 521.449219 C 428.96875 497.445312 428.96875 458.527344 452.972656 434.507812 C 464.984375 422.515625 480.703125 416.488281 496.441406 416.488281 C 512.160156 416.488281 527.902344 422.496094 539.910156 434.507812 C 551.902344 446.496094 557.929688 462.238281 557.929688 477.976562 C 557.929688 493.71875 551.921875 509.4375 539.910156 521.449219 L 535.121094 526.238281 C 520.917969 540.441406 512.917969 559.714844 512.917969 579.8125 C 512.917969 599.910156 520.898438 619.183594 535.121094 633.386719 Z M 539.910156 638.199219 " fill-opacity="1" fill-rule="nonzero"/></svg>