<svg xmlns="http://www.w3.org/2000/svg" xmlns:xlink="http://www.w3.org/1999/xlink" width="1080" zoomAndPan="magnify" viewBox="0 0 810 1012.49997" height="1350" preserveAspectRatio="xMidYMid meet" version="1.0"><defs><clipPath id="9ea7ce20e3"><path d="M 463 230.351562 L 562.402344 230.351562 L 562.402344 252 L 463 252 Z M 463 230.351562 " clip-rule="nonzero"/></clipPath><clipPath id="000bd33d47"><path d="M 399 272 L 562.402344 272 L 562.402344 294 L 399 294 Z M 399 272 " clip-rule="nonzero"/></clipPath><clipPath id="ef6ebda998"><path d="M 363 314 L 562.402344 314 L 562.402344 336 L 363 336 Z M 363 314 " clip-rule="nonzero"/></clipPath><clipPath id="ba736b13cb"><path d="M 340 356 L 562.402344 356 L 562.402344 378 L 340 378 Z M 340 356 " clip-rule="nonzero"/></clipPath><clipPath id="491489474d"><path d="M 327 398 L 562.402344 398 L 562.402344 419 L 327 419 Z M 327 398 " clip-rule="nonzero"/></clipPath><clipPath id="8ccccea637"><path d="M 321 440 L 562.402344 440 L 562.402344 462 L 321 462 Z M 321 440 " clip-rule="nonzero"/></clipPath><clipPath id="fdf6f01c13"><path d="M 318 482 L 562.402344 482 L 562.402344 503 L 318 503 Z M 318 482 " clip-rule="nonzero"/></clipPath><clipPath id="aed8586d64"><path d="M 309 523 L 562.402344 523 L 562.402344 545 L 309 545 Z M 309 523 " clip-rule="nonzero"/></clipPath><clipPath id="cd6d64060b"><path d="M 291 565 L 562.402344 565 L 562.402344 587 L 291 587 Z M 291 565 " clip-rule="nonzero"/></clipPath><clipPath id="c82568dec1"><path d="M 262 607 L 562.402344 607 L 562.402344 629 L 262 629 Z M 262 607 " clip-rule="nonzero"/></clipPath><clipPath id="b2d669f0d4"><path d="M 215 649 L 562.402344 649 L 562.402344 671 L 215 671 Z M 215 649 " clip-rule="nonzero"/></clipPath><clipPath id="33aa3a3a90"><path d="M 79.839844 691 L 562.402344 691 L 562.402344 712.917969 L 79.839844 712.917969 Z M 79.839844 691 " clip-rule="nonzero"/></clipPath></defs><g clip-path="url(#9ea7ce20e3)"><path fill="#ff914d" d="M 562.238281 230.351562 L 562.238281 251.226562 L 463.757812 251.226562 C 492.074219 238.566406 523.191406 231.125 556.050781 230.351562 Z M 562.238281 230.351562 " fill-opacity="1" fill-rule="nonzero"/></g><g clip-path="url(#000bd33d47)"><path fill="#ff914d" d="M 562.238281 272.296875 L 562.238281 293.265625 L 399.875 293.265625 C 408.1875 285.730469 416.980469 278.675781 426.355469 272.296875 Z M 562.238281 272.296875 " fill-opacity="1" fill-rule="nonzero"/></g><g clip-path="url(#ef6ebda998)"><path fill="#ff914d" d="M 562.238281 314.238281 L 562.238281 335.210938 L 363.441406 335.210938 C 368.464844 327.960938 373.78125 320.90625 379.578125 314.238281 Z M 562.238281 314.238281 " fill-opacity="1" fill-rule="nonzero"/></g><g clip-path="url(#ba736b13cb)"><path fill="#ff914d" d="M 562.238281 356.183594 L 562.238281 377.152344 L 340.4375 377.152344 C 343.53125 370.003906 346.914062 362.949219 350.585938 356.183594 Z M 562.238281 356.183594 " fill-opacity="1" fill-rule="nonzero"/></g><g clip-path="url(#491489474d)"><path fill="#ff914d" d="M 562.238281 398.125 L 562.238281 419 L 327.003906 419 C 328.648438 411.945312 330.484375 404.890625 332.707031 398.125 Z M 562.238281 398.125 " fill-opacity="1" fill-rule="nonzero"/></g><g clip-path="url(#8ccccea637)"><path fill="#ff914d" d="M 562.238281 440.070312 L 562.238281 461.136719 L 321.59375 461.136719 C 321.882812 454.082031 322.464844 447.027344 323.429688 440.070312 Z M 562.238281 440.070312 " fill-opacity="1" fill-rule="nonzero"/></g><g clip-path="url(#fdf6f01c13)"><path fill="#ff914d" d="M 562.238281 482.011719 L 562.238281 502.984375 L 318.984375 502.984375 C 319.855469 496.121094 320.433594 489.066406 320.722656 482.011719 Z M 562.238281 482.011719 " fill-opacity="1" fill-rule="nonzero"/></g><g clip-path="url(#aed8586d64)"><path fill="#ff914d" d="M 562.238281 523.957031 L 562.238281 544.925781 L 309.609375 544.925781 C 311.832031 538.066406 313.765625 531.109375 315.3125 523.957031 Z M 562.238281 523.957031 " fill-opacity="1" fill-rule="nonzero"/></g><g clip-path="url(#cd6d64060b)"><path fill="#ff914d" d="M 562.238281 565.996094 L 562.238281 586.96875 L 291.730469 586.96875 C 295.402344 580.105469 298.785156 573.148438 301.78125 565.996094 Z M 562.238281 565.996094 " fill-opacity="1" fill-rule="nonzero"/></g><g clip-path="url(#c82568dec1)"><path fill="#ff914d" d="M 562.238281 607.9375 L 562.238281 628.910156 L 262.542969 628.910156 C 268.441406 622.242188 273.851562 615.1875 278.78125 607.9375 Z M 562.238281 607.9375 " fill-opacity="1" fill-rule="nonzero"/></g><g clip-path="url(#b2d669f0d4)"><path fill="#ff914d" d="M 562.238281 649.882812 L 562.238281 670.757812 L 215.671875 670.757812 C 224.949219 664.476562 233.839844 657.421875 242.152344 649.882812 Z M 562.238281 649.882812 " fill-opacity="1" fill-rule="nonzero"/></g><g clip-path="url(#33aa3a3a90)"><path fill="#ff914d" d="M 562.238281 691.824219 L 562.238281 712.796875 L 79.886719 712.796875 C 114.871094 712.796875 148.214844 705.355469 178.175781 691.824219 Z M 562.238281 691.824219 " fill-opacity="1" fill-rule="nonzero"/></g></svg>